{
  "accessors": [
    {
      "bufferView": 2,
      "componentType": 5126,
      "count": 62307,
      "max": [
        2.608633041381836,
        6.10605525970459,
        2.8699769973754883
      ],
      "min": [
        0.0,
        0.0,
        0.0
      ],
      "type": "VEC3"
    },
    {
      "bufferView": 2,
      "byteOffset": 747684,
      "componentType": 5126,
      "count": 62307,
      "max": [
        0.999995231628418,
        0.9999856948852539,
        0.999998927116394
      ],
      "min": [
        -0.9999994039535522,
        -0.9999905228614807,
        -0.9999998807907104
      ],
      "type": "VEC3"
    },
    {
      "bufferView": 1,
      "componentType": 5126,
      "count": 62307,
      "max": [
        0.9969499707221985,
        1.0000150203704834
      ],
      "min": [
        0.000450999999884516,
        0.003452999982982874
      ],
      "type": "VEC2"
    },
    {
      "bufferView": 0,
      "componentType": 5125,
      "count": 239997,
      "type": "SCALAR"
    }
  ],
  "asset": {
    "extras": {
      "author": "Husky (https://sketchfab.com/ZubenelgennubiHusky)",
      "license": "CC-BY-4.0 (http://creativecommons.org/licenses/by/4.0/)",
      "source": "https://sketchfab.com/3d-models/rong-b61cffbfbe66495b97a9a101b1859bbc",
      "title": "Rồng"
    },
    "generator": "Sketchfab-12.66.0",
    "version": "2.0"
  },
  "bufferViews": [
    {
      "buffer": 0,
      "byteLength": 959988,
      "name": "floatBufferViews",
      "target": 34963
    },
    {
      "buffer": 0,
      "byteLength": 498456,
      "byteOffset": 959988,
      "byteStride": 8,
      "name": "floatBufferViews",
      "target": 34962
    },
    {
      "buffer": 0,
      "byteLength": 1495368,
      "byteOffset": 1458444,
      "byteStride": 12,
      "name": "floatBufferViews",
      "target": 34962
    }
  ],
  "buffers": [
    {
      "byteLength": 2953812,
      "uri": "scene.bin"
    }
  ],
  "extensionsUsed": [
    "KHR_materials_unlit"
  ],
  "images": [
    {
      "uri": "textures/material_0_baseColor.jpeg"
    }
  ],
  "materials": [
    {
      "doubleSided": true,
      "extensions": {
        "KHR_materials_unlit": {}
      },
      "name": "material_0",
      "pbrMetallicRoughness": {
        "baseColorFactor": [
          0.7682926829268293,
          0.7682926829268293,
          0.7682926829268293,
          1.0
        ],
        "baseColorTexture": {
          "index": 0
        },
        "metallicFactor": 0.0
      }
    }
  ],
  "meshes": [
    {
      "name": "Object_0",
      "primitives": [
        {
          "attributes": {
            "NORMAL": 1,
            "POSITION": 0,
            "TEXCOORD_0": 2
          },
          "indices": 3,
          "material": 0,
          "mode": 4
        }
      ]
    }
  ],
  "nodes": [
    {
      "children": [
        1
      ],
      "matrix": [
        3.8817113389934035e-15,
        -0.014685613938387004,
        0.17160600252995284,
        0.0,
        1.6349079777533793e-15,
        -0.17160600252995284,
        -0.014685613938387004,
        0.0,
        0.1722332388162613,
        3.480154993580293e-15,
        -2.0747077846344045e-15,
        0.0,
        11.237418174743652,
        -3.9827783107757555,
        -6.660322666168214,
        1.0
      ],
      "name": "Sketchfab_model"
    },
    {
      "children": [
        2
      ],
      "matrix": [
        1.0,
        0.0,
        0.0,
        0.0,
        0.0,
        1.0,
        0.0,
        0.0,
        0.0,
        0.0,
        1.0,
        0.0,
        4.542510032653809,
        -2.140428066253662,
        -6.8255839347839355,
        1.0
      ],
      "name": "11.obj.cleaner.materialmerger.gles"
    },
    {
      "mesh": 0,
      "name": "Object_2"
    }
  ],
  "samplers": [
    {
      "magFilter": 9729,
      "minFilter": 9987,
      "wrapS": 10497,
      "wrapT": 10497
    }
  ],
  "scene": 0,
  "scenes": [
    {
      "name": "Sketchfab_Scene",
      "nodes": [
        0
      ]
    }
  ],
  "textures": [
    {
      "sampler": 0,
      "source": 0
    }
  ]
}
